<?xml version="1.0" encoding="UTF-8" standalone="no"?>
<svg
   xmlns:dc="http://purl.org/dc/elements/1.1/"
   xmlns:cc="http://creativecommons.org/ns#"
   xmlns:rdf="http://www.w3.org/1999/02/22-rdf-syntax-ns#"
   xmlns:svg="http://www.w3.org/2000/svg"
   xmlns="http://www.w3.org/2000/svg"
   xmlns:sodipodi="http://sodipodi.sourceforge.net/DTD/sodipodi-0.dtd"
   xmlns:inkscape="http://www.inkscape.org/namespaces/inkscape"
   inkscape:version="1.0 (6e3e5246a0, 2020-05-07)"
   inkscape:export-ydpi="96"
   inkscape:export-xdpi="96"
   inkscape:export-filename="/home/sumit/Documents/GitProjects/Presentations/slideimages/uxdesign/frankiewithidea.png"
   sodipodi:docname="frankiewithidea.svg"
   id="svg16"
   version="1.1"
   fill="none"
   viewBox="0 0 2000 2496"
   height="2496"
   width="2000">
  <metadata
     id="metadata22">
    <rdf:RDF>
      <cc:Work
         rdf:about="">
        <dc:format>image/svg+xml</dc:format>
        <dc:type
           rdf:resource="http://purl.org/dc/dcmitype/StillImage" />
        <dc:title></dc:title>
      </cc:Work>
    </rdf:RDF>
  </metadata>
  <defs
     id="defs20">
    <marker
       inkscape:isstock="true"
       style="overflow:visible"
       id="Arrow1Lstart"
       refX="0.0"
       refY="0.0"
       orient="auto"
       inkscape:stockid="Arrow1Lstart">
      <path
         transform="scale(0.8) translate(12.5,0)"
         style="fill-rule:evenodd;stroke:#000000;stroke-width:1.0pt"
         d="M 0.0,0.0 L 5.0,-5.0 L -12.5,0.0 L 5.0,5.0 L 0.0,0.0 z "
         id="path918" />
    </marker>
  </defs>
  <sodipodi:namedview
     inkscape:current-layer="svg16"
     inkscape:window-maximized="1"
     inkscape:window-y="34"
     inkscape:window-x="0"
     inkscape:cy="1435.1689"
     inkscape:cx="230.59656"
     inkscape:zoom="0.17146332"
     showgrid="false"
     id="namedview18"
     inkscape:window-height="1009"
     inkscape:window-width="1920"
     inkscape:pageshadow="2"
     inkscape:pageopacity="0"
     guidetolerance="10"
     gridtolerance="10"
     objecttolerance="10"
     borderopacity="1"
     bordercolor="#666666"
     pagecolor="#ffffff" />
  <path
     inkscape:export-filename="/home/sumit/Documents/GitProjects/Presentations/slideimages/uxdesign/frankiewithidea.png"
     inkscape:export-ydpi="96"
     inkscape:export-xdpi="96"
     id="path2"
     fill="#ffffff"
     d="m 800.564,1178.632 c 23.246,-5.986 49.966,-5.29 73.816,-3.759 24.22,1.556 50.21,4.224 72.94,12.637 19.76,7.314 36.42,19.614 46.57,37.239 8.35,14.491 12.26,30.381 14.71,46.521 1.01,6.6 1.85,13.22 2.65,19.85 l 1.64,13.78 c 0.64,5.28 1.2,9.23 2.33,15.11 3.12,16.27 7.46,29.86 17.16,41.7 23.48,28.65 61.83,38.24 96.7,50.47 22.31,7.83 39.98,21.91 44.88,44.53 4.73,21.82 184.56,204.91 202.22,220.34 l 0.48,0.42 c 13.7,11.47 12.08,33.03 14,48.78 2.05,16.88 4.01,33.77 5.86,50.67 3.77,34.33 7.13,68.69 10.08,103.09 11.51,134.52 16.74,269.52 15.63,404.46 l -0.07,7.64 c -0.17,17.13 -0.04,34.33 -0.86,51.44 -0.8,16.44 -6.14,32.9 -22.52,41.49 -15.17,7.95 -34.36,7.25 -51.32,8.05 l -1.01,0.05 c -18.2,0.93 -36.4,1.68 -54.61,2.31 -74.01,2.55 -148.09,2.82 -222.14,2.51 -146.91,-0.63 -293.962,-3.64 -440.731,4.02 -37.413,1.95 -156.686,-9.91 -193.982,-6.53 -35.646,3.23 -5.061,19.49 -27.082,18.42 -72.422,-3.52 -141.117,-18.56 -210.504,-36.67 -8.668,-2.26 -15.297,-10.08 -15.188,-18.54 1.289,-92.92 4.108,-185.81 8.514,-278.64 3.925,-82.69 9.097,-165.34 15.513,-247.9 2.789,-35.88 5.813,-71.75 9.071,-107.6 l 1.411,-15.37 c 1.84,-19.81 2.899,-39.99 7.087,-59.53 4.142,-19.32 13.54,-36.08 27.167,-51.05 12.228,-13.43 150.669,-118.59 184.011,-138.5 31.914,-19.05 65.427,-35.13 98.19,-52.79 13.63,-7.35 26.721,-4.7 38.366,-13.72 6.139,-4.76 95.215,-36.8 119.248,-47.37 l 0.708,-0.31 c 18.395,-8.21 35.322,-17.11 48.032,-31.31 4.261,-4.76 12.617,-34.74 12.633,-44.32 0.029,-17.11 -1.365,-35.14 4.184,-51.718 6.635,-19.823 22.629,-34.342 44.216,-39.9 z m 39.406,441.248 -142.334,257.88 h 92.556 l -66.344,143.29 H 869.54 l -51.68,200.7 295.56,-343.99 h -110.91 l 110.91,-135.43 h -76.92 l 76.92,-114.69 z"
     clip-rule="evenodd"
     fill-rule="evenodd" />
  <path
     inkscape:export-filename="/home/sumit/Documents/GitProjects/Presentations/slideimages/uxdesign/frankiewithidea.png"
     inkscape:export-ydpi="96"
     inkscape:export-xdpi="96"
     id="path4"
     fill="#000000"
     d="m 1318.11,1764.89 c -0.33,0.31 -0.67,0.61 -1,0.94 0.38,-0.5 0.71,-1.02 1,-1.53 z m -276.62,-75.12 c -12.78,15.19 -26.31,46.11 -38.73,61.57 -1.78,2.22 -3.53,4.44 -5.26,6.68 -5.15,6.71 1.73,16.98 10.21,16.54 16.93,-0.83 33.85,-2.01 50.77,-3.2 -34.75,36.03 -63.61,80.79 -95.52,118.96 -2.16,2.56 -4.29,5.13 -6.42,7.71 -8.08,9.8 0.02,14.24 11.06,11.6 2.28,-0.55 4.56,-1.09 6.84,-1.63 16.06,-3.83 32.09,-7.66 48.14,-11.47 8.88,-2.13 17.8,-4.75 26.8,-6.37 3.7,-0.66 7.25,-0.11 10.74,0.06 -1.68,2.38 -4.03,6.68 -4.5,7.34 -5.24,7.59 -10.51,15.16 -15.82,22.69 -10.35,14.65 -20.74,29.27 -31.52,43.64 -42.03,56.04 -87.37,109.53 -132.31,163.52 -11.31,13.58 -22.78,27.02 -34.44,40.33 0.05,-0.08 0.09,-0.16 0.14,-0.24 10.5,-19.02 21,-38.03 31.5,-57.05 19.96,-36.14 39.73,-72.38 59.9,-108.43 1.04,-1.88 2.09,-3.75 3.15,-5.63 4.18,-7.47 -2.68,-15.23 -11.28,-13.65 -41.94,7.68 -83.47,17.13 -124.491,28.32 -1.846,1.83 -4.56,2.36 -6.983,1.92 -1.648,0.46 -3.304,0.9 -4.952,1.36 0.5,-0.96 1.017,-1.91 1.52,-2.87 -1.676,-1.36 -2.51,-3.46 -1.42,-6.07 23.603,-56.66 55.966,-111.36 94.306,-161.45 -1.54,0.02 -3.08,0.04 -4.63,0.09 -42.087,1.06 -83.376,6.68 -123.939,17.34 -0.19,-3.49 2.076,-8.89 3.304,-11.47 4.912,-10.28 10.551,-20.33 15.827,-30.45 10.794,-20.79 21.588,-41.56 32.381,-62.36 10.552,-20.31 21.017,-40.68 30.946,-61.28 5.211,-10.8 10.411,-21.61 15.601,-32.42 4.24,-8.81 7.58,-17.67 11.09,-26.68 10.31,2.81 142.69,3.42 174.86,5.5 7.89,0.51 15.79,0.98 23.7,1.38 6.29,0.34 15.17,1.63 19.51,-3.67 l 1.64,1.29 c -14.29,15.9 -27.99,32.23 -41.72,48.55 z M 524.657,1394.38 c 0.658,-0.28 1.298,-0.55 1.938,-0.82 0.328,0.43 0.726,0.83 1.141,1.23 1.038,0.99 2.059,2.05 3.131,3.01 -2.075,-1.12 -4.151,-2.27 -6.21,-3.42 z m 925.143,904.39 c -1.19,-23.45 -2.53,-46.9 -3.95,-70.35 -2.8,-45.83 -5.69,-91.66 -9.54,-137.43 -7.84,-92.74 -15.14,-185.45 -26.88,-277.85 -4.93,-38.74 -11.82,-77.18 -18.72,-115.64 0.88,-0.74 1.78,-1.48 2.66,-2.21 -0.95,10.53 14.41,17.19 22.02,6.7 0.57,-0.79 1.13,-1.58 1.68,-2.4 6.59,-9.91 21.78,-58.55 20.72,-62.67 -1.9,-7.42 -7.19,-14.01 -11.33,-20.55 -3.61,-5.71 -7.26,-11.42 -10.96,-17.09 -7.39,-11.34 -15,-22.57 -22.97,-33.57 -16.52,-22.75 -34.58,-44.6 -55.86,-63.71 -22.02,-19.79 -47.29,-36.06 -73.39,-50.82 -12.54,-7.08 -25.48,-13.5 -38.66,-19.49 -13.01,-5.89 -27.24,-12.4 -41.26,-15.75 -0.79,-0.19 -1.6,0.84 -0.88,1.38 3.72,2.74 7.61,5.31 11.57,7.79 -10.72,-3.46 -21.77,-5.95 -32.91,-6.84 -21.57,-7.05 -43.4,-13.5 -64.87,-20.85 -21.1,-7.25 -41.89,-15.39 -55.92,-32.54 -11.99,-14.66 -19.56,-32.61 -25.39,-50.08 -6.4,-19.26 -8.95,-39.29 -14.86,-58.58 -0.47,-1.56 -3.22,-1.74 -3.58,0 -4.22,20.24 -4.03,43 -1.63,63.44 2.53,21.43 9.01,42.47 23.13,59.9 16.4,20.26 38.64,31.54 63.67,40.53 20.19,7.28 40.63,14.68 61.3,21.18 -2.7,1.64 -5.43,3.28 -8.25,4.84 -11.21,6.2 -22.87,11.7 -34.78,16.64 -21.76,9.03 -44.68,15.79 -67.74,21.28 -42.92,10.17 -86.92,15.33 -131.17,16.01 -88.527,1.37 -178.042,-15.88 -259.011,-49.19 -22.799,-9.39 -45.061,-19.7 -67.098,-30.53 -6.884,-3.38 -13.803,-6.79 -20.687,-10.3 0.57,-0.03 1.159,-0.08 1.729,-0.13 15.378,-1.35 30.565,-4.1 45.441,-8 30.461,-8 59.659,-20.47 88.338,-32.75 24.321,-10.41 49.368,-22.27 64.226,-43.96 7.94,-11.6 11.59,-25.22 14.547,-38.54 3.304,-14.84 7.196,-29.74 9.601,-44.73 0.847,-5.24 -0.416,-12.338 -6.47,-14.816 -2.421,-0.984 -4.411,-1.788 -7.126,-1.788 -6.003,0 -12.16,4.057 -13.596,9.624 -3.546,13.89 -5.691,28.16 -8.476,42.19 -2.404,12.14 -4.601,24.8 -11.641,35.47 -12.299,18.69 -36.411,28.24 -56.788,37.34 -25.825,11.52 -51.668,22.75 -78.496,32.1 -11.814,4.12 -23.836,7.86 -36.031,10.91 0.484,-2.78 0.069,-5.71 -1.695,-7.91 -2.941,-3.64 -6.279,-6.06 -10.067,-8.84 -4.117,-3.03 -9.652,-4.6 -14.513,-3.27 0,0.02 -0.017,0 -0.017,0 -1.972,-0.4 -4.152,-0.24 -6.4,0.71 -6.954,2.96 -13.89,5.96 -20.827,9 -99.789,43.67 -196.742,94.98 -270.17,173.11 -10.586,11.26 -20.497,23.11 -29.786,35.32 -9.029,11.86 -20.204,24.73 -22.694,39.44 -0.208,1.23 1.712,1.79 2.041,0.53 0.588,-2.27 1.383,-4.49 2.369,-6.64 -2.058,6.69 -1.937,13.81 0.969,20.8 3.442,8.24 9.756,13.7 17.73,15.87 -8.009,32.66 -13.388,65.74 -17.713,99.2 -6.209,48.19 -10.62,96.51 -13.941,144.94 -6.643,96.67 -9.601,193.82 -7.456,290.67 0.606,27.37 1.609,54.75 3.131,82.1 0.761,13.68 1.592,27.34 2.543,41.02 0.934,13.46 0.173,28.28 12.783,35.38 0.155,0.53 0.328,1.04 0.484,1.57 3.062,9.93 16.71,6.75 17.99,-2.27 0.017,-0.09 0.034,-0.21 0.051,-0.3 10.31,-7.32 8.753,-19.52 7.992,-31.22 -0.813,-12.63 -1.678,-25.25 -2.404,-37.87 -1.384,-24.2 -2.56,-48.4 -3.616,-72.62 -2.058,-47.9 -3.217,-95.85 -3.598,-143.78 -0.761,-95.86 5.19,-191.58 12.247,-287.17 2.958,-39.99 6.418,-79.8 7.473,-119.78 5.518,-2.67 7.213,-10.26 4.445,-15.38 65.35,41.49 125.995,91.08 174.688,148.73 8.13,9.62 15.896,19.53 23.334,29.62 2.422,3.29 4.723,6.7 7.04,10.11 -2.248,9.51 -3.995,19.18 -6.279,28.31 -4.705,18.84 -6.694,38.39 -9.392,57.55 -5.483,38.89 -9.341,78.14 -12.61,117.24 -6.435,77.23 -11.209,154.45 -12.714,231.9 -0.83,43.8 -1.937,87.88 0.139,131.67 -1.54,8.56 6.746,16.93 15.412,18.01 7.593,0.95 14.685,-2.72 18.006,-8.63 23.663,2.74 47.949,3.99 71.457,4.15 31.671,0.21 63.343,0.18 95.015,-0.45 63.361,-1.28 126.704,-2.8 190.048,-4.55 126.683,-3.48 253.373,-6.97 380.083,-10.46 35.13,-0.97 70.26,-1.93 105.39,-2.9 15.84,-0.43 35.6,3.82 48.09,-7.56 2.14,-1.97 3.8,-4.27 4.98,-6.73 3.73,0.87 8.32,0.02 10.77,-2.67 4.59,-5.04 7.96,-9.7 7.79,-16.69 -0.16,-6.53 -2.09,-13.42 -3.1,-19.89 -1.9,-12.15 -3.73,-24.3 -5.48,-36.46 -3.44,-24.05 -6.66,-48.12 -9.62,-72.21 -6.05,-49.26 -11.55,-98.63 -15.84,-148.05 -8.51,-97.73 -10.92,-195.98 -10.62,-294.02 0.03,-8.77 0.08,-17.54 0.13,-26.31 0.4,0.47 0.84,0.9 1.3,1.27 0.38,0.31 0.76,0.61 1.14,0.94 4.43,3.62 11.8,5.49 17.11,2.06 6.52,-3.93 11.02,-9.82 16.11,-15.15 5.34,-5.58 10.84,-11.02 16.39,-16.43 10.76,-10.46 21.88,-20.48 33.23,-30.4 0.92,-0.78 1.84,-1.59 2.75,-2.36 0.07,31.2 0.04,62.39 0.94,93.58 1.35,46.33 4.04,92.61 6.52,138.88 4.91,91.61 10,183.19 14.89,274.79 1.37,25.58 2.66,51.16 4.03,76.73 0.69,12.8 1.37,25.59 2.02,38.39 0.35,6.91 0.7,13.85 1.04,20.77 0.38,7.44 -0.12,15.38 2.58,22.45 6.14,16.16 32.67,18.44 37.78,0 3.2,-11.57 0.74,-24.96 0.17,-36.84 -0.59,-11.71 -1.18,-23.44 -1.78,-35.17 z"
     clip-rule="evenodd"
     fill-rule="evenodd" />
  <path
     inkscape:export-filename="/home/sumit/Documents/GitProjects/Presentations/slideimages/uxdesign/frankiewithidea.png"
     inkscape:export-ydpi="96"
     inkscape:export-xdpi="96"
     id="path8"
     fill="#000000"
     d="m 1129.94,751.33 c -0.07,-1.237 1.86,-1.382 2.23,-0.288 21.19,65.127 34.25,115.881 48,182.651 l 4.06,19.642 c 10.85,52.386 21.81,104.849 31.07,157.49 l 0.54,3.143 c 4.64,27.248 7.31,54.762 1.5,82.067 -5.43,25.523 -20.27,48.925 -39.54,67.555 -37.24,36.02 -89,58.52 -141.06,68.57 -26.33,5.09 -53.49,7.05 -80.32,5.28 -13.37,-0.87 -26.72,-2.62 -39.81,-5.21 l -1.45,-0.29 c -13.2,-2.65 -24.91,-5.81 -31.92,-17.37 -1.77,-2.91 -1.06,-7.9 2.65,-9.39 6.98,-2.81 12.12,-3.98 19.75,-3.17 7.28,0.77 14.39,2.81 21.59,4.08 13.75,2.43 27.72,3.65 41.72,3.95 27.48,0.56 55.04,-2.64 81.31,-10.27 45.15,-13.12 91.02,-38.21 117.4,-75.733 31.03,-44.147 18.68,-97.726 10.45,-146.48 l -0.24,-1.476 c -8.33,-49.833 -16.56,-99.666 -24.55,-149.531 l -3.41,-21.373 c -8.95,-56.469 -17.41,-96.781 -19.97,-153.847 z M 671.569,613.112 c 22.532,-13.817 50.532,-17.212 76.997,-17.022 l 3.314,0.039 c 33.888,0.481 204.47,4.258 261.58,5.42 l 13.59,0.266 c 17.98,0.316 54.25,0.645 72.94,0.963 l 1.08,0.019 c 9.16,0.16 18.33,0.225 27.5,0.498 l 1.34,0.045 c 6.87,0.273 12.59,1.229 17.96,5.733 2.74,2.282 3.81,5.763 3.56,9.079 l -0.04,0.431 13.61,1.111 c 9.24,0.76 14.13,8.473 10.46,16.278 l -0.19,0.378 c -6.52,12.938 -11.5,50.595 -14.99,64.515 -1.84,7.322 -3.31,14.757 -4.17,22.24 -0.69,5.892 -0.76,11.796 -4.29,16.978 -7.53,11.055 -28.7,10.959 -29.08,-4.699 -0.02,-0.499 0,-0.982 0.05,-1.449 -53.27,-2.172 -126.01,-1.963 -179.22,0.998 -49.69,2.768 -99.16,9.044 -147.857,18.651 -12.333,2.43 -24.631,5.086 -36.844,7.966 -10.015,2.35 -22.313,3.75 -31.273,8.787 -10.033,5.665 -9.843,15.819 -8.753,25.491 1.17,10.251 3.12,4.969 5.884,14.311 l 0.17,0.59 c 2.854,10.139 6.383,20.164 11.053,29.691 2.664,5.44 6.956,10.67 5.328,16.93 -0.917,3.524 -3.911,7.29 -6.66,9.752 -12.525,11.184 -33.695,4.055 -42.206,19.375 -8.906,16.02 -9.127,37.721 -9.883,55.448 l -0.045,1.038 c -0.552,12.214 -0.398,24.46 0.467,36.642 0.778,11.103 3.959,22.096 -0.122,32.765 -2.976,7.757 -12.696,8.481 -17.781,2.173 -0.584,-0.725 -1.119,-1.467 -1.62,-2.214 l -0.491,-0.747 -0.033,0.016 c 0.483,0.708 0.933,1.433 1.365,2.172 0.467,0.821 -0.692,1.722 -1.401,1.014 -11.97,-12.118 -29.458,-9.704 -43.002,-1.223 -13.717,8.626 -19.131,25.008 -19.84,39.702 -0.796,16.299 0.761,35.404 8.061,50.465 3.079,6.373 7.471,12.23 14.755,14.66 3.305,1.095 6.452,0.95 9.894,1.207 3.579,0.256 7.887,1.931 11.363,1.706 4.518,-0.299 8.574,4.499 7.291,8.52 l -0.094,0.267 c -0.067,0.193 -0.138,0.386 -0.206,0.563 0.171,0.145 0.344,0.322 0.466,0.579 13.146,24.992 31.17,47.232 51.096,67.863 9.983,10.315 21.052,19.794 32.624,28.564 5.708,4.329 11.727,8.663 18.076,12.153 2.11,1.14 4.045,1.91 6.419,2.54 1.105,0.29 2.368,0.43 3.44,0.77 l 1.114,0.36 c 0.076,0.02 0.149,0.04 0.218,0.06 3.183,0.34 5.864,2.3 6.919,5.38 2.75,8.01 -2.249,15.09 -10.794,17.3 -9.257,2.4 -17.982,-1.83 -25.32,-6.68 l -0.488,-0.33 c -14.962,-10.02 -28.748,-21.27 -40.683,-34.401 -23.611,-25.925 -38.403,-55.938 -45.249,-89.137 -1.697,3.395 -3.98,6.356 -7.941,8.416 -6.158,3.219 -13.51,3.219 -20.256,2.141 -13.578,-2.141 -25.15,-9.849 -32.882,-20.277 -8.028,-10.814 -11.019,-23.946 -12.835,-36.74 -1.799,-12.811 -2.681,-25.667 -0.882,-38.509 2.579,-18.442 10.897,-36.675 27.07,-46.782 -12.108,-24.541 -14.235,-52.059 -13.371,-78.934 1.056,-33.086 7.196,-66.543 11.918,-99.324 l 13.425,-93.192 v 0 l 0.549,-3.757 c 3.24,-21.924 7.184,-43.963 16.003,-64.621 8.701,-20.357 21.916,-38.767 41.843,-50.981 z m -56.493,440.873 c 22.175,-10.009 46.132,-0.788 58.068,18.636 10.377,16.887 -20.478,28.049 -25.626,10.642 l -0.148,-0.536 c -3.39,-13.18 -17.195,-24.574 -31.602,-26.344 -1.194,-0.159 -2.078,-1.769 -0.692,-2.398 z"
     clip-rule="evenodd"
     fill-rule="evenodd" />
  <path
     inkscape:export-filename="/home/sumit/Documents/GitProjects/Presentations/slideimages/uxdesign/frankiewithidea.png"
     inkscape:export-ydpi="96"
     inkscape:export-xdpi="96"
     id="path10"
     fill="#000000"
     d="m 1010.06,1210.704 c -11.63,-4.413 -22.01,-11.775 -29.59,-21.178 -2.64,-3.27 -3.32,-6.722 -2.77,-9.879 0.62,-3.55 2.88,-6.768 5.96,-8.927 3.09,-2.165 6.95,-3.232 10.69,-2.688 3.24,0.473 6.47,2.126 9.03,5.555 l 0.53,0.686 c 4.51,5.675 10.39,10.332 17.09,13.334 6.45,2.893 13.67,4.243 21.14,3.458 14.22,-1.495 24.03,-8.652 34.45,-18.372 1.29,-1.227 2.58,-2.492 3.88,-3.778 0.82,-1.166 1.96,-1.915 3.22,-2.308 1.41,-0.437 2.99,-0.412 4.45,0.06 1.4,0.455 2.65,1.318 3.49,2.466 0.8,1.092 1.26,2.44 1.11,3.991 -0.95,10.072 -6.62,19.062 -14.66,26.12 -8.93,7.84 -20.76,13.263 -31.91,15.165 -12.27,2.096 -24.78,0.594 -36.11,-3.705 z m 41.91,-155.39 c 13.06,7.387 32.96,24.611 18.91,42.923 -16.54,16.147 -40.36,-2.366 -52.09,-10.739 -10.88,-6.489 -23.11,10.2 -13.01,17.777 84.8,58.409 119.21,-48.029 52.79,-58.645 -7.31,-1.17 -10.03,6.399 -6.6,8.684 z M 900,987.37 c 1.45,-16.666 28.73,-20.45 31.44,-3.959 2.44,14.773 -0.43,28.344 -7.58,41.645 -6.83,12.707 -24.01,6.778 -25.31,-4.792 -1.74,-15.51 0.56,-22.527 1.45,-32.894 z m 207.69,-7.378 c 3.8,-4.635 9.29,-7.799 15.87,-6.011 20.56,5.589 14.5,32.742 7.28,45.959 -3.92,7.178 -16.6,8.998 -22.33,2.678 -9.35,-10.306 -13.82,-30.887 -1.94,-41.038 0.32,-0.524 0.68,-1.054 1.12,-1.588 z m -184.12,-65.547 3.25,-0.529 c 10.05,-1.616 22.54,-3.169 29.64,4.345 3.77,3.984 5.07,11.39 0,15.204 -8.91,6.71 -18.76,4.11 -29.44,4.678 -8.8,0.47 -17.26,1.825 -25.74,4.079 -18.6,4.946 -33.75,13.974 -49.63,23.887 -2.09,1.3 -4.22,-1.18 -3.22,-2.993 9.17,-16.709 26.94,-30.435 44.74,-38.801 9.5,-4.466 19.89,-8.171 30.4,-9.87 z m 165.37,-7.485 2.49,0.473 c 27.05,5.26 62.19,15.768 75,40.485 0.49,3.495 -0.03,4.244 -0.45,4.734 l -0.14,0.163 c -0.34,0.418 -0.62,0.994 -2.25,1.469 -0.45,-0.1 -0.9,-0.206 -1.37,-0.318 -5.87,-1.432 -10.51,-3.404 -15.01,-5.45 l -4.88,-2.235 c -5.65,-2.581 -11.36,-5.067 -17.41,-6.903 -12.91,-3.917 -26.18,-6.676 -39.66,-8.15 -2.93,-0.319 -5.74,-1.236 -7.96,-2.809 -2.11,-1.492 -3.72,-3.559 -4.45,-6.306 -0.95,-3.555 -0.68,-6.246 1.37,-9.453 1.54,-2.409 3.75,-4.078 6.28,-5.037 2.58,-0.977 5.52,-1.207 8.44,-0.663 z"
     clip-rule="evenodd"
     fill-rule="evenodd" />
  <path
     inkscape:export-filename="/home/sumit/Documents/GitProjects/Presentations/slideimages/uxdesign/frankiewithidea.png"
     inkscape:export-ydpi="96"
     inkscape:export-xdpi="96"
     id="path12"
     fill="#000000"
     d="m 1053.87,1118.013 c -19.24,-8.061 -53.78,-1.027 -66.32,1.77 -29.16,6.504 -58.49,20.561 -67.55,42.584 -10.22,24.82 10.16,32.633 13.16,31.357 20.19,1.322 44.22,-10.481 65.37,-13.528 17.17,-2.494 35.28,-4.672 51.37,-13.159 11.74,6.011 38.27,9.26 59.68,14.516 18.23,4.474 26.13,14.176 43.04,12.113 20.26,-2.472 11.96,-42.113 -10.62,-58.172 -24.71,-17.575 -66.5,-24.702 -88.13,-17.481 z m 38.09,169.497 c -16.83,3.82 -17.96,-30.5 -19.85,-42.63 -1.47,-9.47 -9.78,-33.895 -30.84,-32.841 -21.06,1.054 -28.98,21.52 -27.91,34.251 0.69,8.25 8.87,50.06 -17.23,55.35 -16.64,-0.05 -35.89,-1.1 -53.38,-4.1 -20.59,-4.34 -47.37,-19.53 -54.44,10.39 -2.54,10.76 88.16,42.75 128.41,45.65 40.82,7.69 88.58,-4.14 117.64,-33.19 6.61,-6.61 25.23,-34.05 26.56,-40.77 2.79,-14.12 -3.67,-23.21 -22.45,-18.23 -13.27,6.59 -35.69,23.66 -46.51,26.12 z"
     clip-rule="evenodd"
     fill-rule="evenodd" />
  <path
     inkscape:export-filename="/home/sumit/Documents/GitProjects/Presentations/slideimages/uxdesign/frankiewithidea.png"
     inkscape:export-ydpi="96"
     inkscape:export-xdpi="96"
     id="path14"
     fill="#000000"
     d="m 1206.77,1065.117 c -21,20.188 -56.06,25.981 -84,15.154 -71.74,-27.887 -36.63,-114.867 18.7,-138.226 6.92,-1.603 16.15,-5.405 24.57,-6.268 0.76,-0.348 2.41,0.658 4.42,-0.293 61.01,6.337 74.91,94.448 36.31,129.633 m -231.4,5.167 c -23.55,29.065 -67.34,38.032 -103.12,24.521 -70.684,-25.897 -45.615,-103.027 2.74,-133.265 102.16,-35.711 144.34,55.154 100.38,108.744 m -153.222,-64.399 c -0.065,-0.029 -0.131,-0.044 -0.199,-0.073 0.374,-0.153 0.748,-0.306 1.12,-0.462 -0.121,0.295 -0.253,0.586 -0.371,0.881 -0.183,-0.118 -0.344,-0.255 -0.55,-0.346 M 1255.4,974.467 c -5.77,0.011 -14.1,0.893 -18.87,4.615 -11.77,-36.937 -55.23,-71.123 -93.02,-46.195 -29.76,8.904 -51.85,28.651 -64.4,54.905 -22.63,-12.524 -58.21,-7.176 -77.84,9.385 -12.85,-39.509 -44.48,-53.344 -82.13,-55.386 -41.09,-6.262 -82.045,30.866 -94.824,60.65 -10.626,-1.125 -26.504,-4.271 -36.5,1.83 -64.878,-15.829 -178.306,-24.556 -191.496,-15.762 -9.399,3.356 -14.557,23.996 -1.428,25.11 11.44,-1.511 -1.336,-15.124 10.196,-16.609 61.446,-3.544 121.097,7.969 181.893,12.8 5.428,6.792 22.966,9.065 32.322,6.335 -14.736,50.525 17.074,84.899 64.737,95.195 73.8,15.772 138.01,-45.65 118.72,-109.538 22.35,-10.348 48.07,-9.903 72.42,-4.453 -40.69,139.346 200.53,133.094 162.86,-13.492 25.07,11.603 30.51,-7.048 17.36,-9.39"
     clip-rule="evenodd"
     fill-rule="evenodd" />
  <g
     inkscape:export-filename="/home/sumit/Documents/GitProjects/Presentations/slideimages/uxdesign/frankiewithidea.png"
     inkscape:export-ydpi="96"
     inkscape:export-xdpi="96"
     transform="translate(48.5634,-9.06083)"
     id="g916">
    <path
       id="path38"
       style="fill:#000000;fill-opacity:1;stroke-width:1;stroke-miterlimit:4;stroke-dasharray:none"
       d="m 1659.0641,39.890828 c -27.6377,32.2828 -48.016,136.475422 -12.0639,48.0254 5.7904,-15.47952 10.3772,-31.53085 12.0639,-48.0254 z m -312.5762,2.625 c -14.6223,45.53359 59.5952,130.097232 19.9171,40.97754 -5.7388,-14.07014 -12.2484,-27.84838 -19.9171,-40.97754 z m 154,1.04883 c -33.9788,35.25216 31.135,117.635602 0,0 z m 275.7539,101.951172 c -46.1401,26.16966 -64.2352,92.56172 -11.8435,21.87872 l 6.2757,-10.748 z m -537.0156,10.875 c -3.9999,45.44925 83.3496,64.01668 0,0 z m 530,5 -1.797,1.62825 z m -260.5,33.67578 c -163.8185,-15.53224 -296.1369,208.639 -184.4995,336.50945 95.3046,63.17847 56.8341,195.50901 124.9146,263.88976 102.0079,57.82754 164.0493,-52.01661 153.3824,-140.93796 27.2088,-91.63718 134.3968,-150.33806 116.9237,-255.64506 -8.5951,-106.16929 -99.8854,-207.07249 -210.7212,-203.81619 z m -21.2285,10 c 161.6118,-21.12674 294.1739,199.39907 179.7589,324.55186 -30.6089,66.6181 -135.2857,199.66133 -141.1844,49.94148 -21.7421,-75.27175 74.5471,-131.73406 61.119,-180.6389 -38.2126,19.32771 -65.553,41.23714 -59.7136,-27.63703 -46.1128,-95.83325 -39.7218,99.53004 -90.5227,27.13977 -82.1883,25.4205 74.707,82.45999 35.3665,145.98262 34.7682,70.01807 -45.3813,181.13035 -78.1358,65.77134 -71.1845,-80.56119 -141.7977,-193.53046 -70.6658,-298.81559 33.4737,-58.69496 95.3197,-103.03833 163.9779,-106.29555 z m -182.7715,28.6582 c 5.0896,1.49603 -5.0958,1.48851 0,0 z m 575.0918,28.66602 c -42.9652,7.03985 -120.6339,63.90687 -33.4521,29.88264 13.8145,-6.1042 26.9333,-15.79424 33.4521,-29.88264 z m -759.916,2.13867 c 26.3245,57.19832 112.5295,24.04526 19.1924,6.91807 z m 381.957,85.69531 c 67.6544,35.57448 -82.1764,63.67711 0,0 z m -92.0684,49.22071 c 66.7477,13.53152 -36.496,61.04753 0,0 z m 175.3926,0.64257 c 33.6228,36.1326 -54.3516,16.52446 0,0 z m -381.2422,19.34766 c -48.6649,-11.14117 -91.3029,23.21936 -12.77,13.5609 l 8.0884,-5.04772 z m 597.0938,1.21289 c 12.8532,52.79393 84.0104,-21.0181 0,0 z m -299.5039,12.74219 c 53.9464,59.33134 13.9618,163.19776 12.373,230.95341 -75.1319,-10.85589 -3.1265,-124.47925 -39.5898,-179.35361 -2.3373,-20.2885 6.5672,-43.89168 27.2168,-51.5998 z m -258.1543,93 c -76.8282,5.45423 -33.5853,62.41002 0,0 z m 514.9961,3.52539 c 28.0739,53.57252 119.5528,23.20447 0,0 z m -62.5235,87.75 c 15.2027,62.96338 66.3983,30.30608 0,0 z m -391.2461,1.35352 c -64.7654,18.94039 -9.7699,71.88568 0,0 z m 282.1368,55.66992 c -1.7774,78.44393 -185.3832,46.26054 -126.6131,14.63769 42.2909,6.19517 89.1094,10.57042 126.6131,-14.63769 z m 0.625,36.70117 c -23.6801,77.77636 -220.5496,12.39303 -88.9829,16.26102 30.2181,3.44032 63.7761,3.65257 88.9829,-16.26102 z M 1417.4,740.467 c 38.2576,32.72028 223.6804,-0.5335 90.4416,36.83549 -33.2436,2.84801 -72.122,-6.13827 -90.4416,-36.83549 z m -125.3711,173.81445 c -8.6294,-13.69532 -9.2108,9.40381 0,0 z" />
  </g>
</svg>
