<?xml version="1.0" encoding="UTF-8" standalone="no"?>
<svg
   xmlns:dc="http://purl.org/dc/elements/1.1/"
   xmlns:cc="http://creativecommons.org/ns#"
   xmlns:rdf="http://www.w3.org/1999/02/22-rdf-syntax-ns#"
   xmlns:svg="http://www.w3.org/2000/svg"
   xmlns="http://www.w3.org/2000/svg"
   xmlns:sodipodi="http://sodipodi.sourceforge.net/DTD/sodipodi-0.dtd"
   xmlns:inkscape="http://www.inkscape.org/namespaces/inkscape"
   sodipodi:docname="interview.svg"
   inkscape:version="1.0 (6e3e5246a0, 2020-05-07)"
   id="svg1230"
   version="1.1"
   viewBox="0 0 210 297"
   height="297mm"
   width="210mm">
  <defs
     id="defs1224" />
  <sodipodi:namedview
     inkscape:window-maximized="1"
     inkscape:window-y="34"
     inkscape:window-x="0"
     inkscape:window-height="1009"
     inkscape:window-width="1920"
     showgrid="false"
     inkscape:document-rotation="0"
     inkscape:current-layer="layer1"
     inkscape:document-units="mm"
     inkscape:cy="883.08909"
     inkscape:cx="289.15468"
     inkscape:zoom="0.98994949"
     inkscape:pageshadow="2"
     inkscape:pageopacity="0.0"
     borderopacity="1.0"
     bordercolor="#666666"
     pagecolor="#ffffff"
     id="base" />
  <metadata
     id="metadata1227">
    <rdf:RDF>
      <cc:Work
         rdf:about="">
        <dc:format>image/svg+xml</dc:format>
        <dc:type
           rdf:resource="http://purl.org/dc/dcmitype/StillImage" />
        <dc:title></dc:title>
      </cc:Work>
    </rdf:RDF>
  </metadata>
  <g
     id="layer1"
     inkscape:groupmode="layer"
     inkscape:label="Layer 1">
    <path
       inkscape:export-ydpi="95.5"
       inkscape:export-xdpi="95.5"
       inkscape:export-filename="/home/sumit/Documents/GitProjects/Presentations/slideimages/uxdesign/interview.png"
       sodipodi:nodetypes="csssccssssssssssssssssccsssssssssssssssscccssssssssssssssssssssssscssssssssssssssssccscccccsscccssscsscccssscsscsssscsscsssscsssssssscssssscssssssscsssssssss"
       id="path1246"
       d="m 91.111183,279.43132 c -0.860409,-0.47588 -1.742924,-1.35884 -2.160452,-2.16156 -0.394478,-0.75839 -2.419649,-8.55769 -4.305094,-16.57968 -0.564337,-2.40109 -1.153212,-4.69304 -1.30861,-5.09323 l -0.282538,-0.7276 -11.71436,-0.003 c -12.337166,-0.003 -13.106238,-0.0658 -15.418527,-1.2535 -2.349918,-1.20699 -4.047028,-3.72124 -4.598858,-6.81315 -0.155831,-0.87313 -0.409566,-4.20688 -0.563855,-7.40834 -0.154289,-3.20145 -0.463618,-8.26161 -0.687398,-11.24479 -0.22378,-2.98317 -0.427801,-7.0313 -0.453381,-8.99583 -0.04463,-3.42732 -0.01561,-3.63877 0.716929,-5.22485 1.690123,-3.65942 5.897938,-5.88192 9.623443,-5.08294 4.026262,0.86348 6.501204,4.01309 7.186686,9.14579 0.438576,3.28394 1.041731,11.6627 1.239221,17.21477 0.09924,2.78991 0.264152,5.20802 0.366469,5.37357 0.119049,0.19262 2.415728,0.43578 6.378389,0.6753 10.855754,0.65616 12.642059,0.85859 14.196351,1.60872 2.093584,1.01042 2.588196,2.04996 3.539818,7.43974 0.430805,2.44 1.611389,8.9012 2.623515,14.35823 1.012127,5.45703 1.839984,10.39813 1.839685,10.98021 -7.94e-4,1.59402 -0.733483,2.81345 -2.106308,3.50573 -1.278512,0.64471 -3.218995,0.77997 -4.111125,0.28655 z m 12.028477,-0.28655 c -1.37642,-0.69409 -2.10557,-1.91234 -2.10619,-3.51899 -2.2e-4,-0.58937 0.76652,-5.17328 1.70387,-10.18646 0.93735,-5.01317 2.07766,-11.31752 2.53401,-14.00965 0.99445,-5.86644 1.57637,-7.33686 3.30432,-8.34951 1.5155,-0.88813 2.95297,-1.08045 12.66457,-1.6944 4.49271,-0.28402 8.23951,-0.58735 8.32623,-0.67406 0.0867,-0.0867 0.30193,-3.21729 0.47826,-6.95683 0.54107,-11.47502 1.1016,-16.92032 1.98472,-19.28065 1.50352,-4.01849 5.35114,-6.34411 9.3087,-5.62647 3.08805,0.55997 5.41992,2.3302 6.68896,5.0779 0.73209,1.58511 0.76161,1.79963 0.71899,5.22485 -0.0244,1.96453 -0.22846,6.01266 -0.45338,8.99583 -0.22491,2.98318 -0.53517,8.04334 -0.68946,11.24479 -0.15429,3.20146 -0.40803,6.53521 -0.56386,7.40834 -0.60872,3.41069 -2.29783,5.69497 -5.26031,7.11382 l -1.71979,0.82368 -12.38051,0.0784 -12.38055,0.0784 -0.27789,0.71537 c -0.15283,0.39346 -0.73962,2.67991 -1.30396,5.081 -1.74615,7.42928 -3.90464,15.8202 -4.23361,16.45769 -1.26737,2.45599 -3.83183,3.26336 -6.34312,1.997 z M 57.112227,266.76136 c -9.986631,-1.228 -17.772668,-7.83987 -20.079561,-17.05149 -0.544769,-2.1753 -3.66252,-22.93746 -3.922388,-26.12049 -0.172106,-2.10807 0.147693,-3.05677 1.401508,-4.15763 2.292476,-2.01282 5.908436,-0.82267 6.696017,2.20391 0.155533,0.59769 0.880039,5.31343 1.610014,10.47942 1.800374,12.74114 2.077969,14.3771 2.82354,16.64002 1.203638,3.65322 3.577044,6.36347 7.112607,8.12205 3.17636,1.57991 4.994549,1.76803 15.270885,1.57998 9.829591,-0.17987 9.770734,-0.18746 11.13804,1.43749 1.367028,1.62462 1.18155,3.94062 -0.441574,5.51381 -0.731443,0.70895 -1.202682,0.90891 -2.586632,1.09761 -2.52925,0.34486 -16.742833,0.53563 -19.022456,0.25532 z m 69.320973,0.002 c -2.69215,-0.10454 -5.19984,-0.31177 -5.57265,-0.46052 -0.37281,-0.14874 -1.05155,-0.69608 -1.50831,-1.2163 -1.3909,-1.58414 -1.44704,-3.65444 -0.14119,-5.20635 1.35381,-1.6089 1.30785,-1.60302 11.12622,-1.42335 10.34751,0.18934 12.07265,0.007 15.38367,-1.62982 2.46137,-1.21647 5.12789,-3.80391 6.19609,-6.01232 1.16472,-2.40795 1.63328,-4.75951 3.4881,-17.50555 1.51662,-10.42196 1.81065,-12.02125 2.36377,-12.85708 1.51451,-2.28858 4.59927,-2.42017 6.60981,-0.28198 1.15758,1.23109 1.14544,2.5312 -0.10167,10.88636 -0.59733,4.00182 -1.38457,9.35964 -1.74944,11.90625 -0.85045,5.93576 -1.45619,8.30103 -2.87974,11.24479 -2.67135,5.5241 -7.86405,9.84676 -13.94583,11.60919 -4.15637,1.20447 -7.89723,1.38825 -19.26883,0.94668 z m -10.05422,-51.70367 c -2.24098,-0.47676 -3.64455,-0.9933 -5.77951,-2.12696 -1.52806,-0.8114 -1.9799,-0.92598 -3.65159,-0.92598 -4.51129,0 -7.98511,-0.85691 -11.270698,-2.78022 -2.822852,-1.65243 -4.749993,-3.61162 -5.88769,-5.9856 -1.507855,-3.14636 -2.190531,-2.87585 7.257592,-2.87585 5.022666,0 8.464316,-0.10624 8.908156,-0.27498 1.42966,-0.54355 1.41038,-0.38828 1.41944,-11.43283 0.008,-9.90572 -0.01,-10.2705 -0.52075,-10.78177 -0.51691,-0.5169 -0.88195,-0.52916 -15.754772,-0.52916 H 75.873589 l -0.64943,0.64943 -0.649433,0.64943 v 10.05144 10.05144 l 0.635862,0.73923 c 0.580919,0.67536 0.820084,0.7476 2.76787,0.83606 l 2.132007,0.0968 0.0764,2.09553 0.0764,2.09552 2.626331,-2.13913 c 1.857333,-1.51278 2.678985,-2.03758 2.80616,-1.79234 0.09891,0.19073 0.401431,0.97837 0.67228,1.7503 l 0.492453,1.40352 -0.785072,0.62204 c -0.431786,0.34212 -2.690069,2.22797 -5.018402,4.19079 l -4.666515,7.85316 0.360622,-8.45986 -0.07256,-4.17545 -1.118069,-0.28464 c -1.40218,-0.35697 -2.957149,-1.6279 -3.647611,-2.98132 -0.508855,-0.99744 -0.526865,-1.47694 -0.455343,-12.12279 l 0.07447,-11.08427 0.79375,-1.12662 c 0.436562,-0.61964 1.318492,-1.40365 1.959842,-1.74224 l 1.166096,-0.61563 h 15.846522 c 14.069821,0 15.941501,0.048 16.693321,0.42783 1.19521,0.60387 2.00891,1.40059 2.59232,2.53819 0.47073,0.91791 0.50341,1.68727 0.50341,11.84861 0,9.2099 -0.0624,11.0164 -0.4095,11.84703 -0.52403,1.25416 -1.30486,2.08412 -2.63322,2.7989 -0.98525,0.53016 -1.50277,0.5755 -7.49389,0.65658 l -6.435531,0.0871 1.540732,1.19776 c 3.289959,2.5576 5.522699,3.2572 10.852499,3.40047 3.67889,0.0989 3.79321,0.11994 5.60364,1.03165 1.96634,0.99023 5.22615,2.00131 6.45242,2.00131 h 0.74086 l -1.22297,-2.38549 c -1.10627,-2.15786 -1.19534,-2.46479 -0.93332,-3.21642 0.15932,-0.457 1.02489,-1.49625 1.92351,-2.30945 1.29971,-1.17617 1.85095,-1.93873 2.69554,-3.7289 0.9882,-2.09458 1.06256,-2.41521 1.07417,-4.63162 0.0105,-2.01077 -0.0888,-2.58707 -0.63855,-3.70416 -1.25169,-2.54352 -4.97572,-5.60416 -8.00751,-6.58107 -0.3784,-0.12193 -0.46303,-0.46461 -0.46303,-1.87502 v -1.72582 l 1.78595,0.67177 c 2.00279,0.75334 4.23969,1.95842 5.56249,2.99668 1.49173,1.17084 3.78747,4.21697 4.31996,5.73198 1.00654,2.86379 0.42349,8.17094 -1.23179,11.21223 -0.37813,0.69475 -1.39701,2.0493 -2.26418,3.0101 l -1.57667,1.74692 1.06777,2.12368 c 0.58728,1.16802 1.06777,2.42872 1.06777,2.80155 0,0.76435 -0.81993,2.5108 -1.40786,2.99874 -0.60272,0.5002 -2.78271,0.58494 -4.67759,0.18182 z m -60.872347,-9.13551 c -4.128541,-0.71665 -7.081692,-4.04309 -7.334729,-8.26188 -0.339899,-5.66701 3.693942,-9.85386 9.474662,-9.83407 2.453791,0.008 4.438276,0.8268 6.146096,2.53462 2.360413,2.36041 3.206076,5.66123 2.443768,8.76557 -0.275358,1.12134 -0.760521,2.21705 -1.459881,3.23353 -1.856756,2.6987 -5.711338,4.17994 -9.269916,3.56223 z m 83.820167,-0.008 c -7.21546,-1.24323 -9.99157,-10.31953 -4.75732,-15.55376 3.13851,-3.1385 8.29922,-3.44777 12.0164,-0.7201 4.3961,3.22586 4.93495,9.95879 1.10365,13.79009 -1.94251,1.94252 -5.45295,2.98513 -8.36273,2.48377 z"
       style="fill:#000000;stroke-width:0.264583" />
    <path
       id="path1248"
       d="m 57.112227,266.76135 -0.357121,15.91988 5.581724,-0.20982 -0.449112,-15.07183 v 0"
       style="fill:#000000;stroke:#000000;stroke-width:0.264583px;stroke-linecap:butt;stroke-linejoin:miter;stroke-opacity:1;fill-opacity:1" />
    <path
       id="path1254"
       d="m 133.50592,267.25798 -0.44853,14.58084 5.22623,-0.0716 -1.54943,-14.66498"
       style="fill:#000000;stroke:#000000;stroke-width:0.264583px;stroke-linecap:butt;stroke-linejoin:miter;stroke-opacity:1;fill-opacity:1" />
    <path
       id="path1256"
       d="M 61.887718,267.39958 Z"
       style="fill:none;stroke:#000000;stroke-width:0.264583px;stroke-linecap:butt;stroke-linejoin:miter;stroke-opacity:1" />
    <path
       id="path1258"
       d="m 61.887718,267.39958 v 0"
       style="fill:none;stroke:#000000;stroke-width:0.264583px;stroke-linecap:butt;stroke-linejoin:miter;stroke-opacity:1" />
  </g>
</svg>
