<?xml version="1.0" encoding="UTF-8" standalone="no"?>
<svg
   xmlns:osb="http://www.openswatchbook.org/uri/2009/osb"
   xmlns:dc="http://purl.org/dc/elements/1.1/"
   xmlns:cc="http://creativecommons.org/ns#"
   xmlns:rdf="http://www.w3.org/1999/02/22-rdf-syntax-ns#"
   xmlns:svg="http://www.w3.org/2000/svg"
   xmlns="http://www.w3.org/2000/svg"
   xmlns:sodipodi="http://sodipodi.sourceforge.net/DTD/sodipodi-0.dtd"
   xmlns:inkscape="http://www.inkscape.org/namespaces/inkscape"
   sodipodi:docname="server.svg"
   inkscape:version="1.0 (6e3e5246a0, 2020-05-07)"
   id="svg8"
   version="1.1"
   viewBox="0 0 210 297"
   height="297mm"
   width="210mm">
  <defs
     id="defs2">
    <linearGradient
       osb:paint="solid"
       id="linearGradient2793">
      <stop
         id="stop2791"
         offset="0"
         style="stop-color:#000000;stop-opacity:1;" />
    </linearGradient>
  </defs>
  <sodipodi:namedview
     inkscape:window-maximized="1"
     inkscape:window-y="34"
     inkscape:window-x="0"
     inkscape:window-height="697"
     inkscape:window-width="1366"
     inkscape:snap-smooth-nodes="false"
     showgrid="false"
     inkscape:document-rotation="0"
     inkscape:current-layer="layer1"
     inkscape:document-units="mm"
     inkscape:cy="701.56874"
     inkscape:cx="894.87064"
     inkscape:zoom="0.175"
     inkscape:pageshadow="2"
     inkscape:pageopacity="0.0"
     borderopacity="1.0"
     bordercolor="#666666"
     pagecolor="#ffffff"
     id="base" />
  <metadata
     id="metadata5">
    <rdf:RDF>
      <cc:Work
         rdf:about="">
        <dc:format>image/svg+xml</dc:format>
        <dc:type
           rdf:resource="http://purl.org/dc/dcmitype/StillImage" />
        <dc:title></dc:title>
      </cc:Work>
    </rdf:RDF>
  </metadata>
  <g
     id="layer1"
     inkscape:groupmode="layer"
     inkscape:label="Layer 1">
    <path
       inkscape:export-ydpi="95.5"
       inkscape:export-xdpi="95.5"
       inkscape:export-filename="/home/sumit/Documents/GitProjects/Stories/slideimages/uxdesign/server.png"
       sodipodi:nodetypes="ssscscccssssscssccccccssssscccssssssscssscscsssscssscccssssscssscscssssssssscssssscssssssccscssscsssssssscsssssssssssssssssssssscssscsssssssssssscscssscsssssssssssscs"
       id="path847"
       d="m 67.996381,226.27147 c -2.725256,-0.91461 -5.342098,-3.30287 -6.632147,-6.0528 -1.183806,-2.52345 -1.212711,-4.15217 -1.212711,-68.33259 0,-64.645689 0.02081,-65.791767 1.238704,-68.387995 0.681292,-1.452263 2.386022,-3.466162 3.788293,-4.47533 l 2.5496,-1.834851 h 28.914367 28.914353 l 2.54959,1.834851 c 1.40228,1.009168 3.10701,3.023067 3.7883,4.47533 1.21794,2.596228 1.23871,3.742306 1.23871,68.387995 0,64.6457 -0.0208,65.79178 -1.23871,68.388 -0.68129,1.45228 -2.38562,3.46617 -3.78741,4.47534 l -2.54872,1.83485 -27.950507,0.12235 c -15.37279,0.0673 -28.698049,-0.12852 -29.611712,-0.43515 z m 58.745119,-6.8471 2.09888,-2.49125 V 151.88608 86.839063 l -2.09926,-2.491261 -2.09926,-2.491262 H 97.089637 c -29.836808,0 -29.621486,-0.0249 -31.621279,3.656647 -0.937198,1.725367 -1.023781,7.348349 -1.023781,66.494143 0,59.55829 0.08104,64.73832 1.036258,66.25842 1.127666,1.79453 2.275249,2.73693 4.176736,3.43001 0.674627,0.24589 13.322248,0.39596 28.105819,0.33347 l 26.87924,-0.11356 z M 93.54814,185.26381 c -0.827943,-0.90039 -1.50536,-2.41466 -1.50536,-3.36506 0,-2.22368 2.554913,-5.00212 4.599707,-5.00212 2.044784,0 4.599693,2.77844 4.599693,5.00212 0,0.9504 -0.67741,2.46467 -1.505356,3.36506 -0.827943,0.90037 -2.220395,1.63705 -3.094337,1.63705 -0.873952,0 -2.266404,-0.73668 -3.094347,-1.63705 z M 69.766161,151.1149 c -0.785974,-0.85473 -0.413683,-3.42192 0.554867,-3.82609 1.50722,-0.62898 51.975512,-0.45628 52.900042,0.18101 0.45116,0.31098 0.72713,1.28181 0.6133,2.15737 l -0.20698,1.59195 -26.722996,0.17365 c -14.697653,0.0955 -26.909858,-0.0296 -27.138233,-0.27789 z m 24.919587,-10.65758 c -0.50734,-1.43779 0.582155,-3.24409 1.956739,-3.24409 1.374574,0 2.464069,1.8063 1.956729,3.24409 -0.503455,1.42676 -3.410013,1.42676 -3.913468,0 z m -24.919587,-9.35086 c -0.785974,-0.85473 -0.413683,-3.42191 0.554867,-3.8261 1.50722,-0.62896 51.975512,-0.45627 52.900042,0.18102 0.45116,0.31099 0.72713,1.28181 0.6133,2.15737 l -0.20698,1.59194 -26.722996,0.17367 c -14.697653,0.0955 -26.909858,-0.0296 -27.138233,-0.2779 z m 24.919587,-10.65759 c -0.50734,-1.43779 0.582155,-3.24407 1.956739,-3.24407 0.601086,0 1.373887,0.48442 1.717317,1.0765 0.936944,1.61531 0.07085,3.25866 -1.717317,3.25866 -0.889373,0 -1.738882,-0.47369 -1.956739,-1.09109 z m -24.919587,-9.35085 c -0.785974,-0.85474 -0.413683,-3.42191 0.554867,-3.82609 1.50722,-0.62898 51.975512,-0.45629 52.900042,0.18102 0.45116,0.31097 0.72713,1.28179 0.6133,2.15737 l -0.20698,1.59194 -26.722996,0.17366 c -14.697653,0.0955 -26.909858,-0.0296 -27.138233,-0.2779 z m 24.919587,-10.65759 c -0.50734,-1.437786 0.582155,-3.244084 1.956739,-3.244084 0.601086,0 1.373887,0.484429 1.717317,1.076507 0.936944,1.615313 0.07085,3.258657 -1.717317,3.258657 -0.889373,0 -1.738882,-0.47368 -1.956739,-1.09108 z M 69.766161,91.08958 c -0.785974,-0.854737 -0.413683,-3.421917 0.554867,-3.826099 1.50722,-0.628973 51.975512,-0.456275 52.900042,0.181019 0.45116,0.310983 0.72713,1.281799 0.6133,2.157369 l -0.20698,1.591945 -26.722996,0.173661 C 82.206741,91.462986 69.994536,91.337933 69.766161,91.08958 Z M 34.674478,215.65989 c -3.069992,-1.51651 -5.566376,-4.65958 -6.41139,-8.07227 -0.430898,-1.74025 -0.587812,-21.4747 -0.476099,-59.87731 l 0.166633,-57.281549 1.68725,-2.772302 c 2.880885,-4.733583 5.025757,-5.466445 15.998739,-5.466445 10.282646,0 11.64451,0.437841 10.239848,3.292108 -0.636811,1.293984 -1.212922,1.37653 -9.60731,1.37653 -7.316019,0 -9.249986,0.205639 -10.701146,1.137855 -3.774798,2.424909 -3.631058,-0.0032 -3.630017,61.322583 8.86e-4,51.90499 0.07794,56.09056 1.073266,58.25716 1.771419,3.85622 4.106062,4.66641 13.45017,4.6676 7.608901,6.6e-4 8.10827,0.0815 8.483451,1.36694 0.829847,2.84335 -0.491565,3.30376 -9.437156,3.28809 -6.779064,-0.012 -8.82584,-0.2459 -10.836239,-1.23899 z M 138.6775,215.9451 c -0.40648,-0.53262 -0.55966,-1.58306 -0.34041,-2.33431 0.37517,-1.2855 0.87455,-1.36597 8.48345,-1.36694 9.33956,-0.001 11.67368,-0.81076 13.45751,-4.6676 1.00923,-2.18208 1.06922,-6.0315 0.91994,-59.02491 -0.17092,-60.669106 -0.04,-58.167285 -3.16366,-60.426772 -0.90462,-0.654332 -4.10499,-1.031905 -10.73017,-1.265916 -7.92662,-0.279981 -9.54417,-0.511732 -10.08378,-1.444728 -0.46557,-0.804991 -0.42053,-1.40238 0.16344,-2.167581 0.67176,-0.88022 2.38253,-1.056329 10.26153,-1.056329 10.97297,0 13.11785,0.732862 15.99874,5.466445 l 1.68725,2.772302 0.16663,57.281549 c 0.11173,38.40261 -0.0452,58.13706 -0.4761,59.87731 -0.84501,3.41269 -3.34139,6.55576 -6.41139,8.07227 -3.29345,1.62688 -18.74039,1.84791 -19.93298,0.28521 z M 37.143684,150.18671 c -0.818334,-2.80391 0.526204,-3.30273 8.902094,-3.30273 8.37589,0 9.720429,0.49882 8.902095,3.30273 -0.376509,1.29005 -0.870853,1.3659 -8.902095,1.3659 -8.031231,0 -8.525585,-0.0758 -8.902094,-1.3659 z m 101.193406,0 c -0.81834,-2.80391 0.5262,-3.30273 8.90209,-3.30273 8.37589,0 9.72042,0.49882 8.9021,3.30273 -0.37651,1.29005 -0.87087,1.3659 -8.9021,1.3659 -8.03124,0 -8.52558,-0.0758 -8.90209,-1.3659 z m -87.195168,-9.72939 c -0.50734,-1.43779 0.582156,-3.24409 1.956729,-3.24409 1.374584,0 2.464079,1.8063 1.956739,3.24409 -0.503455,1.42676 -3.410013,1.42676 -3.913468,0 z m 87.657318,0.31629 c -1.64343,-1.7872 0.022,-4.34904 2.31323,-3.55823 0.96273,0.33229 1.24356,0.89833 1.10269,2.22269 -0.21051,1.97942 -2.13276,2.73098 -3.41592,1.33554 z M 37.143684,130.17827 c -0.818334,-2.80391 0.526204,-3.30274 8.902094,-3.30274 8.37589,0 9.720429,0.49883 8.902095,3.30274 -0.376509,1.29005 -0.870853,1.36591 -8.902095,1.36591 -8.031231,0 -8.525585,-0.0758 -8.902094,-1.36591 z m 101.193406,0 c -0.81834,-2.80391 0.5262,-3.30274 8.90209,-3.30274 8.37589,0 9.72042,0.49883 8.9021,3.30274 -0.37651,1.29005 -0.87087,1.36591 -8.9021,1.36591 -8.03124,0 -8.52558,-0.0758 -8.90209,-1.36591 z m -87.195168,-9.7294 c -0.50734,-1.43779 0.582156,-3.24407 1.956729,-3.24407 0.601097,0 1.373897,0.48442 1.717328,1.0765 0.936943,1.61531 0.07085,3.25866 -1.717328,3.25866 -0.889374,0 -1.738872,-0.47369 -1.956729,-1.09109 z m 87.657318,0.31631 c -1.64343,-1.78721 0.022,-4.34905 2.31323,-3.55824 0.96273,0.33228 1.24356,0.89832 1.10269,2.22268 -0.21051,1.97943 -2.13276,2.73098 -3.41592,1.33556 z M 37.143684,110.16983 c -0.818334,-2.8039 0.526204,-3.30274 8.902094,-3.30274 8.37589,0 9.720429,0.49884 8.902095,3.30274 -0.376509,1.29004 -0.870853,1.3659 -8.902095,1.3659 -8.031231,0 -8.525585,-0.0758 -8.902094,-1.3659 z m 101.193406,0 c -0.81834,-2.8039 0.5262,-3.30274 8.90209,-3.30274 8.37589,0 9.72042,0.49884 8.9021,3.30274 -0.37651,1.29004 -0.87087,1.3659 -8.9021,1.3659 -8.03124,0 -8.52558,-0.0758 -8.90209,-1.3659 z m -87.195168,-9.7294 c -0.50734,-1.437786 0.582156,-3.244084 1.956729,-3.244084 0.601097,0 1.373897,0.484429 1.717328,1.076507 0.936943,1.615313 0.07085,3.258657 -1.717328,3.258657 -0.889374,0 -1.738872,-0.47368 -1.956729,-1.09108 z m 87.657318,0.3163 c -1.64343,-1.7872 0.022,-4.349047 2.31323,-3.558235 0.96273,0.332292 1.24356,0.89833 1.10269,2.222684 -0.21051,1.979431 -2.13276,2.730981 -3.41592,1.335551 z"
       style="fill:#000000;stroke-width:0.639558;stroke:#3f3f3f;stroke-opacity:1" />
  </g>
</svg>
